<mxfile host="app.diagrams.net" modified="2023-04-20T08:39:25.599Z" agent="Mozilla/5.0 (Windows NT 10.0; Win64; x64) AppleWebKit/537.36 (KHTML, like Gecko) Chrome/110.0.0.0 YaBrowser/23.3.1.895 Yowser/2.5 Safari/537.36" etag="QH6i-yu6-H-DS4iDZhol" version="21.1.4" type="github">
  <diagram name="Страница 1" id="UiT--QQ6pItDQjkaKLVf">
    <mxGraphModel dx="1179" dy="679" grid="1" gridSize="10" guides="1" tooltips="1" connect="1" arrows="1" fold="1" page="1" pageScale="1" pageWidth="827" pageHeight="1169" math="0" shadow="0">
      <root>
        <mxCell id="0" />
        <mxCell id="1" parent="0" />
        <mxCell id="waBg7-lZwKW4JVFWOzP7-1" value="Pool" style="swimlane;html=1;childLayout=stackLayout;horizontal=1;startSize=20;horizontalStack=0;rounded=0;shadow=0;labelBackgroundColor=none;strokeWidth=1;fontFamily=Verdana;fontSize=8;align=center;" vertex="1" parent="1">
          <mxGeometry x="180" y="70" width="680" height="523.5" as="geometry" />
        </mxCell>
        <mxCell id="waBg7-lZwKW4JVFWOzP7-2" value="Банк" style="swimlane;html=1;startSize=20;horizontal=0;" vertex="1" parent="waBg7-lZwKW4JVFWOzP7-1">
          <mxGeometry y="20" width="680" height="150" as="geometry" />
        </mxCell>
        <mxCell id="waBg7-lZwKW4JVFWOzP7-14" value="Покупатель" style="swimlane;html=1;startSize=20;horizontal=0;" vertex="1" parent="waBg7-lZwKW4JVFWOzP7-1">
          <mxGeometry y="170" width="680" height="203.5" as="geometry" />
        </mxCell>
        <mxCell id="waBg7-lZwKW4JVFWOzP7-40" style="edgeStyle=orthogonalEdgeStyle;rounded=0;html=1;labelBackgroundColor=none;startArrow=none;startFill=0;startSize=5;endArrow=classicThin;endFill=1;endSize=5;jettySize=auto;orthogonalLoop=1;strokeWidth=1;fontFamily=Verdana;fontSize=8" edge="1" parent="waBg7-lZwKW4JVFWOzP7-14" source="waBg7-lZwKW4JVFWOzP7-41">
          <mxGeometry relative="1" as="geometry">
            <mxPoint x="120" y="98.5" as="targetPoint" />
          </mxGeometry>
        </mxCell>
        <mxCell id="waBg7-lZwKW4JVFWOzP7-41" value="" style="ellipse;whiteSpace=wrap;html=1;rounded=0;shadow=0;labelBackgroundColor=none;strokeWidth=1;fontFamily=Verdana;fontSize=8;align=center;" vertex="1" parent="waBg7-lZwKW4JVFWOzP7-14">
          <mxGeometry x="60" y="83.5" width="30" height="30" as="geometry" />
        </mxCell>
        <mxCell id="waBg7-lZwKW4JVFWOzP7-43" value="" style="points=[[0.25,0.25,0],[0.5,0,0],[0.75,0.25,0],[1,0.5,0],[0.75,0.75,0],[0.5,1,0],[0.25,0.75,0],[0,0.5,0]];shape=mxgraph.bpmn.gateway2;html=1;verticalLabelPosition=bottom;labelBackgroundColor=#ffffff;verticalAlign=top;align=center;perimeter=rhombusPerimeter;outlineConnect=0;outline=none;symbol=none;gwType=exclusive;" vertex="1" parent="waBg7-lZwKW4JVFWOzP7-14">
          <mxGeometry x="490" y="73.5" width="50" height="50" as="geometry" />
        </mxCell>
        <mxCell id="waBg7-lZwKW4JVFWOzP7-49" value="" style="edgeStyle=orthogonalEdgeStyle;rounded=0;orthogonalLoop=1;jettySize=auto;html=1;" edge="1" parent="waBg7-lZwKW4JVFWOzP7-14" source="waBg7-lZwKW4JVFWOzP7-44" target="waBg7-lZwKW4JVFWOzP7-48">
          <mxGeometry relative="1" as="geometry" />
        </mxCell>
        <mxCell id="waBg7-lZwKW4JVFWOzP7-44" value="Выбор товара на платформе" style="points=[[0.25,0,0],[0.5,0,0],[0.75,0,0],[1,0.25,0],[1,0.5,0],[1,0.75,0],[0.75,1,0],[0.5,1,0],[0.25,1,0],[0,0.75,0],[0,0.5,0],[0,0.25,0]];shape=mxgraph.bpmn.task;whiteSpace=wrap;rectStyle=rounded;size=10;html=1;container=1;expand=0;collapsible=0;taskMarker=abstract;" vertex="1" parent="waBg7-lZwKW4JVFWOzP7-14">
          <mxGeometry x="120" y="58.5" width="120" height="80" as="geometry" />
        </mxCell>
        <mxCell id="waBg7-lZwKW4JVFWOzP7-50" value="" style="edgeStyle=orthogonalEdgeStyle;rounded=0;orthogonalLoop=1;jettySize=auto;html=1;" edge="1" parent="waBg7-lZwKW4JVFWOzP7-14" source="waBg7-lZwKW4JVFWOzP7-48" target="waBg7-lZwKW4JVFWOzP7-43">
          <mxGeometry relative="1" as="geometry" />
        </mxCell>
        <mxCell id="waBg7-lZwKW4JVFWOzP7-48" value="Добавление товара в корзину" style="points=[[0.25,0,0],[0.5,0,0],[0.75,0,0],[1,0.25,0],[1,0.5,0],[1,0.75,0],[0.75,1,0],[0.5,1,0],[0.25,1,0],[0,0.75,0],[0,0.5,0],[0,0.25,0]];shape=mxgraph.bpmn.task;whiteSpace=wrap;rectStyle=rounded;size=10;html=1;container=1;expand=0;collapsible=0;taskMarker=abstract;" vertex="1" parent="waBg7-lZwKW4JVFWOzP7-14">
          <mxGeometry x="290" y="58.5" width="120" height="80" as="geometry" />
        </mxCell>
        <mxCell id="waBg7-lZwKW4JVFWOzP7-51" value="" style="edgeStyle=elbowEdgeStyle;fontSize=12;html=1;endArrow=blockThin;endFill=1;rounded=0;exitX=0.5;exitY=0;exitDx=0;exitDy=0;exitPerimeter=0;entryX=0.5;entryY=0;entryDx=0;entryDy=0;entryPerimeter=0;" edge="1" parent="waBg7-lZwKW4JVFWOzP7-14" source="waBg7-lZwKW4JVFWOzP7-43" target="waBg7-lZwKW4JVFWOzP7-44">
          <mxGeometry width="160" relative="1" as="geometry">
            <mxPoint x="450" y="80" as="sourcePoint" />
            <mxPoint x="610" y="80" as="targetPoint" />
            <Array as="points">
              <mxPoint x="340" y="40" />
            </Array>
          </mxGeometry>
        </mxCell>
        <mxCell id="waBg7-lZwKW4JVFWOzP7-52" value="Покупка совершена?" style="text;html=1;strokeColor=none;fillColor=none;align=center;verticalAlign=middle;whiteSpace=wrap;rounded=0;" vertex="1" parent="waBg7-lZwKW4JVFWOzP7-14">
          <mxGeometry x="485" y="123.5" width="60" height="30" as="geometry" />
        </mxCell>
        <mxCell id="waBg7-lZwKW4JVFWOzP7-63" value="Нет" style="text;html=1;strokeColor=none;fillColor=none;align=center;verticalAlign=middle;whiteSpace=wrap;rounded=0;" vertex="1" parent="waBg7-lZwKW4JVFWOzP7-14">
          <mxGeometry x="320" y="10" width="60" height="30" as="geometry" />
        </mxCell>
        <mxCell id="waBg7-lZwKW4JVFWOzP7-18" value="Интернет-доставка" style="swimlane;html=1;startSize=20;horizontal=0;" vertex="1" parent="waBg7-lZwKW4JVFWOzP7-1">
          <mxGeometry y="373.5" width="680" height="150" as="geometry" />
        </mxCell>
        <mxCell id="waBg7-lZwKW4JVFWOzP7-32" value="Доставка" style="swimlane;html=1;startSize=20;horizontal=0;" vertex="1" parent="1">
          <mxGeometry x="180" y="540" width="680" height="150" as="geometry" />
        </mxCell>
        <mxCell id="waBg7-lZwKW4JVFWOzP7-65" value="" style="endArrow=classic;html=1;rounded=0;exitX=1;exitY=0.5;exitDx=0;exitDy=0;exitPerimeter=0;" edge="1" parent="1" source="waBg7-lZwKW4JVFWOzP7-43">
          <mxGeometry width="50" height="50" relative="1" as="geometry">
            <mxPoint x="650" y="360" as="sourcePoint" />
            <mxPoint x="780" y="339" as="targetPoint" />
          </mxGeometry>
        </mxCell>
      </root>
    </mxGraphModel>
  </diagram>
</mxfile>
